<?xml version="1.0" standalone="no"?><!DOCTYPE svg PUBLIC "-//W3C//DTD SVG 1.1//EN" "http://www.w3.org/Graphics/SVG/1.1/DTD/svg11.dtd"><svg t="1731763121549" class="icon" viewBox="0 0 1024 1024" version="1.1" xmlns="http://www.w3.org/2000/svg" p-id="13608" xmlns:xlink="http://www.w3.org/1999/xlink" width="128" height="128"><path d="M378.496 213.333333C217.216 213.333333 85.333333 346.410667 85.333333 512s131.925333 298.666667 293.162667 298.666667a12.16 12.16 0 0 0 11.52-8.32l2.602667-7.893334a142.08 142.08 0 0 1 134.954666-97.578666h40.746667a42.666667 42.666667 0 1 1 0 85.333333h-40.746667a56.746667 56.746667 0 0 0-53.888 38.997333l-2.602666 7.850667A97.493333 97.493333 0 0 1 378.453333 896C168.832 896 0 723.413333 0 512s168.832-384 378.496-384h267.008C855.210667 128 1024 300.586667 1024 512s-168.789333 384-378.496 384a42.666667 42.666667 0 1 1 0-85.333333C806.784 810.666667 938.666667 677.589333 938.666667 512s-131.925333-298.666667-293.162667-298.666667H378.453333z" fill="#515151" p-id="13609"></path><path d="M327.125333 359.637333a42.666667 42.666667 0 0 1 42.666667 42.666667V469.333333h66.346667a42.666667 42.666667 0 1 1 0 85.333334H369.792v67.029333a42.666667 42.666667 0 0 1-85.333333 0V554.666667H218.026667a42.666667 42.666667 0 0 1 0-85.333334h66.389333V402.304a42.666667 42.666667 0 0 1 42.666667-42.666667zM708.736 359.637333a42.666667 42.666667 0 0 1 42.666667 42.666667V426.666667a42.666667 42.666667 0 1 1-85.333334 0v-24.362667a42.666667 42.666667 0 0 1 42.666667-42.666667z m0 195.029334a42.666667 42.666667 0 0 1 42.666667 42.666666v24.362667a42.666667 42.666667 0 0 1-85.333334 0V597.333333a42.666667 42.666667 0 0 1 42.666667-42.666666z" fill="#515151" p-id="13610"></path></svg>