<?xml version="1.0" standalone="no"?><!DOCTYPE svg PUBLIC "-//W3C//DTD SVG 1.1//EN" "http://www.w3.org/Graphics/SVG/1.1/DTD/svg11.dtd"><svg t="1731749336534" class="icon" viewBox="0 0 1105 1024" version="1.1" xmlns="http://www.w3.org/2000/svg" p-id="12461" xmlns:xlink="http://www.w3.org/1999/xlink" width="138.125" height="128"><path d="M549.376 890.181818c223.325091 0 404.363636-181.038545 404.363636-404.363636S772.701091 81.454545 549.376 81.454545s-404.363636 181.038545-404.363636 404.363637S326.050909 890.181818 549.376 890.181818z" fill="#FFD21E" p-id="12462"></path><path d="M953.739636 485.818182C953.739636 262.493091 772.701091 81.454545 549.376 81.454545s-404.363636 181.038545-404.363636 404.363637S326.050909 890.181818 549.376 890.181818s404.363636-181.038545 404.363636-404.363636z m-855.272727 0C98.466909 236.788364 300.334545 34.909091 549.376 34.909091c249.018182 0 450.909091 201.879273 450.909091 450.909091S798.394182 936.727273 549.376 936.727273c-249.029818 0-450.909091-201.879273-450.909091-450.909091z" fill="#FF9D0B" p-id="12463"></path><path d="M680.750545 375.749818c14.836364 5.236364 20.736 35.723636 35.723637 27.764364a58.181818 58.181818 0 1 0-78.696727-24.052364c7.121455 13.381818 29.719273-8.378182 42.97309-3.712zM406.632727 375.749818c-14.824727 5.236364-20.724364 35.723636-35.700363 27.764364a58.181818 58.181818 0 1 1 78.685091-24.052364c-7.121455 13.381818-29.719273-8.378182-42.984728-3.712zM546.466909 654.999273c114.362182 0 151.272727-101.969455 151.272727-154.333091 0-27.217455-18.292364-18.641455-47.592727-4.142546-27.077818 13.405091-63.557818 31.883636-103.68 31.883637-83.549091 0-151.272727-80.104727-151.272727-27.741091s36.898909 154.333091 151.272727 154.333091z" fill="#3A3B45" p-id="12464"></path><path d="M549.376 773.818182a100.922182 100.922182 0 0 0 30.754909-197.073455c-9.693091-3.095273-20.026182 30.231273-30.754909 30.231273-10.018909 0-19.700364-33.536-28.846545-30.813091A100.922182 100.922182 0 0 0 549.376 773.818182z" fill="#F94040" p-id="12465"></path><path d="M822.830545 430.545455a37.818182 37.818182 0 1 0 0-75.636364 37.818182 37.818182 0 0 0 0 75.636364zM281.739636 430.545455a37.818182 37.818182 0 1 0 0-75.636364 37.818182 37.818182 0 0 0 0 75.636364zM203.915636 558.545455c-18.850909 0-35.677091 7.738182-47.418181 21.771636-7.261091 8.692364-14.848 22.702545-15.476364 43.682909-7.889455-2.269091-15.488-3.537455-22.586182-3.537455-18.036364 0-34.327273 6.912-45.847273 19.467637-14.801455 16.116364-21.376 35.921455-18.513454 55.738182 1.361455 9.437091 4.514909 17.896727 9.227636 25.728-9.937455 8.040727-17.256727 19.234909-20.794182 32.698181a68.340364 68.340364 0 0 0 9.216 55.179637 63.499636 63.499636 0 0 0-2.653091 4.584727c-8.913455 16.919273-9.483636 36.037818-1.62909 53.841455 11.938909 26.984727 41.576727 48.244364 99.130181 71.063272 35.805091 14.196364 68.561455 23.272727 68.852364 23.354182 47.336727 12.276364 90.146909 18.513455 127.208727 18.513455 68.119273 0 116.887273-20.864 144.954182-62.010182 45.172364-66.257455 38.714182-126.859636-19.735273-185.274182-32.349091-32.325818-53.853091-79.988364-58.333091-90.449454-9.029818-30.976-32.907636-65.408-72.610909-65.408-3.339636 0-6.714182 0.267636-10.042181 0.791272-17.384727 2.734545-32.581818 12.741818-43.438546 27.799273-11.717818-14.568727-23.098182-26.158545-33.396364-32.698182C234.507636 563.537455 218.996364 558.545455 203.915636 558.545455z m0 46.545454c5.934545 0 13.184 2.525091 21.178182 7.598546 24.820364 15.744 72.715636 98.071273 90.251637 130.094545 5.876364 10.728727 15.918545 15.266909 24.96 15.266909 17.943273 0 31.953455-17.838545 1.62909-40.506182-45.568-34.106182-29.579636-89.856-7.819636-93.288727 0.954182-0.151273 1.896727-0.221091 2.792727-0.221091 19.781818 0 28.509091 34.094545 28.509091 34.094546s25.588364 64.232727 69.527273 108.136727c43.938909 43.915636 46.196364 79.162182 14.184727 126.126545-21.841455 32.023273-63.650909 41.693091-106.496 41.693091-44.450909 0-89.995636-10.402909-115.525818-17.024-1.256727-0.325818-156.520727-44.183273-136.855273-81.512727 3.304727-6.272 8.750545-8.785455 15.592728-8.785455 27.694545 0 78.08 41.216 99.723636 41.216 4.852364 0 8.261818-2.059636 9.658182-7.086545 9.227636-33.105455-140.299636-47.022545-127.697455-94.976 2.210909-8.482909 8.250182-11.927273 16.721455-11.915636 36.596364 0 118.690909 64.360727 135.912727 64.360727 1.314909 0 2.257455-0.384 2.769455-1.198546 8.610909-13.917091 3.898182-23.633455-56.878546-60.416-60.776727-36.794182-103.447273-58.926545-79.173818-85.341091 2.792727-3.048727 6.749091-4.398545 11.554909-4.398545 36.887273 0.011636 124.078545 79.348364 124.078546 79.348364s23.528727 24.471273 37.76 24.471272c3.258182 0 6.050909-1.291636 7.936-4.48 10.088727-17.012364-93.707636-95.674182-99.560728-128.128-3.968-21.992727 2.781091-33.128727 15.266909-33.128727z" fill="#FF9D0B" p-id="12466"></path><path d="M449.128727 892.392727c32.023273-46.964364 29.754182-82.210909-14.196363-126.138182-43.927273-43.892364-69.504-108.125091-69.504-108.12509s-9.553455-37.306182-31.313455-33.873455c-21.76 3.432727-37.736727 59.182545 7.842909 93.288727 45.579636 34.094545-9.076364 57.250909-26.612363 25.239273-17.536-32.023273-65.419636-114.350545-90.251637-130.094545-24.820364-15.744-42.298182-6.923636-36.445091 25.530181 5.853091 32.453818 109.661091 111.115636 99.560728 128.139637-10.100364 17.012364-45.696-20.014545-45.696-20.014546s-111.383273-101.352727-135.633455-74.938182c-24.250182 26.414545 18.385455 48.546909 79.173818 85.341091 60.788364 36.770909 65.501091 46.498909 56.878546 60.416C234.298182 831.069091 100.130909 717.963636 87.528727 765.905455c-12.590545 47.941818 136.925091 61.870545 127.697455 94.976-9.227636 33.117091-105.320727-62.661818-124.974546-25.344-19.665455 37.329455 135.598545 81.186909 136.843637 81.512727 50.152727 13.009455 177.536 40.576 222.021818-24.669091z" fill="#FFD21E" p-id="12467"></path><path d="M900.654545 558.545455c18.839273 0 35.677091 7.738182 47.418182 21.771636 7.261091 8.692364 14.848 22.702545 15.464728 43.682909 7.901091-2.269091 15.499636-3.537455 22.597818-3.537455 18.036364 0 34.327273 6.912 45.847272 19.467637 14.801455 16.116364 21.376 35.921455 18.501819 55.738182a68.049455 68.049455 0 0 1-9.216 25.728c9.937455 8.040727 17.256727 19.234909 20.794181 32.698181a68.340364 68.340364 0 0 1-9.216 55.179637c0.930909 1.477818 1.826909 3.013818 2.653091 4.584727 8.913455 16.919273 9.483636 36.037818 1.617455 53.841455-11.927273 26.984727-41.565091 48.244364-99.118546 71.063272-35.805091 14.196364-68.561455 23.272727-68.852363 23.354182-47.336727 12.276364-90.146909 18.513455-127.208727 18.513455-68.119273 0-116.887273-20.864-144.954182-62.010182-45.172364-66.257455-38.714182-126.859636 19.735272-185.274182 32.349091-32.325818 53.853091-79.988364 58.333091-90.449454 9.029818-30.976 32.907636-65.408 72.599273-65.408 3.351273 0 6.725818 0.267636 10.053818 0.791272 17.384727 2.734545 32.581818 12.741818 43.438546 27.799273 11.717818-14.568727 23.098182-26.158545 33.396363-32.698182C870.050909 563.537455 885.573818 558.545455 900.654545 558.545455z m0 46.545454c-5.934545 0-13.184 2.525091-21.178181 7.598546-24.820364 15.744-72.727273 98.071273-90.251637 130.094545-5.876364 10.728727-15.918545 15.266909-24.96 15.266909-17.943273 0-31.953455-17.838545-1.640727-40.506182 45.579636-34.106182 29.591273-89.856 7.831273-93.288727a17.954909 17.954909 0 0 0-2.804364-0.221091c-19.781818 0-28.509091 34.094545-28.509091 34.094546s-25.576727 64.232727-69.515636 108.136727c-43.938909 43.915636-46.208 79.162182-14.196364 126.126545 21.853091 32.023273 63.650909 41.693091 106.507637 41.693091 44.439273 0 89.995636-10.402909 115.525818-17.024 1.256727-0.325818 156.509091-44.183273 136.843636-81.512727-3.293091-6.272-8.738909-8.785455-15.592727-8.785455-27.694545 0-78.08 41.216-99.723637 41.216-4.840727 0-8.261818-2.059636-9.658181-7.086545-9.216-33.105455 140.311273-47.022545 127.709091-94.976-2.222545-8.482909-8.261818-11.927273-16.721455-11.915636-36.596364 0-118.702545 64.360727-135.912727 64.360727-1.314909 0-2.257455-0.384-2.769455-1.198546-8.622545-13.917091-3.898182-23.633455 56.878546-60.416 60.776727-36.794182 103.435636-58.926545 79.173818-85.341091-2.792727-3.048727-6.749091-4.398545-11.554909-4.398545-36.898909 0.011636-124.078545 79.348364-124.078546 79.348364s-23.528727 24.471273-37.76 24.471272a8.645818 8.645818 0 0 1-7.936-4.48c-10.088727-17.012364 93.707636-95.674182 99.560728-128.128 3.956364-21.992727-2.792727-33.128727-15.26691-33.128727z" fill="#FF9D0B" p-id="12468"></path><path d="M655.441455 892.392727c-32.023273-46.964364-29.754182-82.210909 14.196363-126.138182 43.927273-43.892364 69.504-108.125091 69.504-108.12509s9.553455-37.306182 31.313455-33.873455c21.76 3.432727 37.736727 59.182545-7.842909 93.288727-45.579636 34.094545 9.076364 57.250909 26.612363 25.239273 17.536-32.023273 65.419636-114.350545 90.251637-130.094545 24.820364-15.744 42.298182-6.923636 36.445091 25.530181-5.853091 32.453818-109.661091 111.115636-99.560728 128.139637 10.100364 17.012364 45.696-20.014545 45.696-20.014546s111.383273-101.352727 135.633455-74.938182c24.250182 26.414545-18.385455 48.546909-79.173818 85.341091-60.788364 36.770909-65.501091 46.498909-56.878546 60.416 8.634182 13.917091 142.801455-99.2 155.403637-51.246545 12.590545 47.941818-136.925091 61.870545-127.697455 94.976 9.227636 33.117091 105.320727-62.661818 124.974545-25.344 19.665455 37.329455-135.598545 81.186909-136.843636 81.512727-50.152727 13.009455-177.536 40.576-222.021818-24.669091z" fill="#FFD21E" p-id="12469"></path></svg>